<?xml version="1.0" encoding="UTF-8" standalone="no"?>
<!-- Created with Inkscape (http://www.inkscape.org/) -->

<svg
   xmlns:dc="http://purl.org/dc/elements/1.1/"
   xmlns:cc="http://creativecommons.org/ns#"
   xmlns:rdf="http://www.w3.org/1999/02/22-rdf-syntax-ns#"
   xmlns:svg="http://www.w3.org/2000/svg"
   xmlns="http://www.w3.org/2000/svg"
   xmlns:sodipodi="http://sodipodi.sourceforge.net/DTD/sodipodi-0.dtd"
   xmlns:inkscape="http://www.inkscape.org/namespaces/inkscape"
   width="1052.3622"
   height="744.09448"
   id="svg4593"
   version="1.1"
   inkscape:version="0.48.5 r10040"
   sodipodi:docname="New document 3">
  <defs
     id="defs3" />
  <sodipodi:namedview
     inkscape:document-units="mm"
     id="base"
     pagecolor="#ffffff"
     bordercolor="#666666"
     borderopacity="1.0"
     inkscape:pageopacity="0.0"
     inkscape:pageshadow="2"
     inkscape:zoom="1.979899"
     inkscape:cx="229.61406"
     inkscape:cy="450.43376"
     inkscape:current-layer="layer1"
     showgrid="true"
     units="mm"
     inkscape:window-width="1920"
     inkscape:window-height="1044"
     inkscape:window-x="1920"
     inkscape:window-y="0"
     inkscape:window-maximized="1"
     showguides="true"
     inkscape:guide-bbox="true">
    <inkscape:grid
       type="xygrid"
       id="grid5114"
       empspacing="10"
       visible="true"
       enabled="true"
       snapvisiblegridlinesonly="true"
       units="mm"
       spacingx="1mm"
       spacingy="1mm" />
  </sodipodi:namedview>
  <metadata
     id="metadata4">
    <rdf:RDF>
      <cc:Work
         rdf:about="">
        <dc:format>image/svg+xml</dc:format>
        <dc:type
           rdf:resource="http://purl.org/dc/dcmitype/StillImage" />
        <dc:title></dc:title>
      </cc:Work>
    </rdf:RDF>
  </metadata>
  <g
     inkscape:label="Layer 1"
     inkscape:groupmode="layer"
     id="layer1"
     transform="translate(0,-308.2677)">
    <path
       style="fill:none;stroke:#000000;stroke-width:1px;stroke-linecap:butt;stroke-linejoin:miter;stroke-opacity:1"
       d="m 106.29921,35.433065 c 70.86614,0 425.19685,0 496.06299,0 70.86615,0 70.86615,70.866145 70.86615,70.866145 0,0 0,141.73228 0,212.59842 0,70.86614 -70.86615,70.86614 -70.86615,70.86614 l -141.73228,0 c 0,0 0,106.29922 0,141.73229 0,35.43307 -35.43307,35.43307 -35.43307,35.43307 l -141.73228,0 c 0,0 -35.43307,0 -35.43307,-35.43307 0,-35.43307 0,-141.73229 0,-141.73229 l -141.73229,0 c 0,0 -70.866139,0 -70.866139,-70.86614 0,-70.86614 0,-212.59842 0,-212.59842 0,0 0,-70.866145 70.866139,-70.866145 z"
       id="path5116"
       inkscape:connector-curvature="0"
       transform="translate(0,308.2677)"
       sodipodi:nodetypes="zsczcczcczcczcz" />
    <path
       style="fill:none;stroke:#000000;stroke-width:1px;stroke-linecap:butt;stroke-linejoin:miter;stroke-opacity:1"
       d="m 35.433071,141.73228 637.795279,0"
       id="path5118"
       inkscape:connector-curvature="0"
       transform="translate(0,308.2677)" />
    <path
       style="fill:none;stroke:#000000;stroke-width:1px;stroke-linecap:butt;stroke-linejoin:miter;stroke-opacity:1"
       d="m 177.16535,364.96062 354.33071,0"
       id="path5120"
       inkscape:connector-curvature="0"
       transform="translate(0,308.2677)"
       sodipodi:nodetypes="cc" />
    <path
       style="fill:none;stroke:#000000;stroke-width:1px;stroke-linecap:butt;stroke-linejoin:miter;stroke-opacity:1"
       d="m 53.149606,124.01574 0,35.43307"
       id="path5126"
       inkscape:connector-curvature="0"
       transform="translate(0,308.2677)" />
    <path
       style="fill:none;stroke:#000000;stroke-width:1px;stroke-linecap:butt;stroke-linejoin:miter;stroke-opacity:1"
       d="m 655.51181,124.01574 0,35.43307"
       id="path5128"
       inkscape:connector-curvature="0"
       transform="translate(0,308.2677)"
       sodipodi:nodetypes="cc" />
    <path
       style="fill:none;stroke:#000000;stroke-width:1px;stroke-linecap:butt;stroke-linejoin:miter;stroke-opacity:1"
       d="m 198.4252,350.7874 0,28.34645"
       id="path5130"
       inkscape:connector-curvature="0"
       transform="translate(0,308.2677)" />
    <path
       style="fill:none;stroke:#000000;stroke-width:1px;stroke-linecap:butt;stroke-linejoin:miter;stroke-opacity:1"
       d="m 510.23622,350.7874 0,28.34645"
       id="path5132"
       inkscape:connector-curvature="0"
       transform="translate(0,308.2677)"
       sodipodi:nodetypes="cc" />
    <path
       sodipodi:type="arc"
       style="fill:none;stroke:#000000;stroke-width:1.77165353;stroke-miterlimit:4;stroke-dasharray:none"
       id="path5215"
       sodipodi:cx="53.149605"
       sodipodi:cy="141.73228"
       sodipodi:rx="6.2459326"
       sodipodi:ry="6.2459326"
       d="m 59.395537,141.73228 a 6.2459326,6.2459326 0 1 1 -12.491865,0 6.2459326,6.2459326 0 1 1 12.491865,0 z"
       transform="translate(0,308.2677)" />
    <path
       transform="translate(602.36221,308.26769)"
       sodipodi:type="arc"
       style="fill:none;stroke:#000000;stroke-width:1.77165353;stroke-miterlimit:4;stroke-dasharray:none"
       id="path5215-2"
       sodipodi:cx="53.149605"
       sodipodi:cy="141.73228"
       sodipodi:rx="6.2459326"
       sodipodi:ry="6.2459326"
       d="m 59.395537,141.73228 a 6.2459326,6.2459326 0 1 1 -12.491865,0 6.2459326,6.2459326 0 1 1 12.491865,0 z" />
    <path
       transform="translate(457.08662,531.53311)"
       sodipodi:type="arc"
       style="fill:none;stroke:#000000;stroke-width:1.77165353;stroke-miterlimit:4;stroke-dasharray:none"
       id="path5215-9"
       sodipodi:cx="53.149605"
       sodipodi:cy="141.73228"
       sodipodi:rx="6.2459326"
       sodipodi:ry="6.2459326"
       d="m 59.395537,141.73228 a 6.2459326,6.2459326 0 1 1 -12.491865,0 6.2459326,6.2459326 0 1 1 12.491865,0 z" />
    <path
       transform="translate(145.32781,531.49604)"
       sodipodi:type="arc"
       style="fill:none;stroke:#000000;stroke-width:1.77165353;stroke-miterlimit:4;stroke-dasharray:none"
       id="path5215-23"
       sodipodi:cx="53.149605"
       sodipodi:cy="141.73228"
       sodipodi:rx="6.2459326"
       sodipodi:ry="6.2459326"
       d="m 59.395537,141.73228 a 6.2459326,6.2459326 0 1 1 -12.491865,0 6.2459326,6.2459326 0 1 1 12.491865,0 z" />
  </g>
</svg>
